<?xml version="1.0" standalone="no"?>
<!DOCTYPE svg PUBLIC "-//W3C//DTD SVG 20010904//EN"
 "http://www.w3.org/TR/2001/REC-SVG-20010904/DTD/svg10.dtd">
<svg version="1.0" xmlns="http://www.w3.org/2000/svg"
 width="512.000000pt" height="512.000000pt" viewBox="0 0 512.000000 512.000000"
 preserveAspectRatio="xMidYMid meet">
<metadata>
Created by potrace 1.14, written by Peter Selinger 2001-2017
</metadata>
<g transform="translate(0.000000,512.000000) scale(0.100000,-0.100000)"
fill="#000000" stroke="none">
<path d="M2285 5039 c-729 -22 -1370 -139 -1796 -328 -202 -90 -347 -209 -410
-337 l-34 -69 0 -1760 0 -1761 34 -67 c75 -148 260 -282 526 -382 535 -201
1253 -297 2110 -282 603 11 1047 65 1491 182 425 111 721 274 827 455 60 103
57 6 57 1852 0 1196 -3 1702 -11 1740 -25 117 -119 237 -262 332 -340 225
-1121 398 -1897 421 -96 3 -224 7 -285 8 -60 2 -218 0 -350 -4z m635 -14 c594
-17 1199 -123 1604 -279 287 -112 464 -247 529 -406 l22 -55 0 -1740 0 -1740
-32 -68 c-61 -128 -190 -239 -385 -331 -353 -167 -850 -275 -1503 -328 -209
-17 -987 -17 -1190 0 -620 52 -1113 156 -1458 307 -202 89 -362 217 -422 340
l-30 60 0 1760 0 1760 33 67 c64 130 233 260 457 351 360 147 794 238 1370
288 161 14 573 27 720 22 61 -1 189 -5 285 -8z"/>
<path d="M2200 4760 c-827 -36 -1578 -215 -1817 -434 -71 -64 -89 -103 -70
-149 48 -114 281 -239 627 -336 74 -21 165 -44 203 -52 37 -7 66 -15 65 -18
-2 -3 -37 -57 -78 -118 -47 -72 -80 -113 -91 -113 -37 0 -330 90 -457 140 -72
29 -164 71 -204 95 l-73 43 -3 -352 c-2 -228 1 -364 8 -388 25 -89 216 -210
462 -294 l108 -36 0 -139 c0 -77 -1 -139 -3 -139 -8 0 -269 90 -317 110 -73
29 -211 98 -231 116 -8 8 -19 14 -23 14 -4 0 -5 -168 -4 -374 l3 -374 31 -39
c88 -109 277 -204 580 -293 122 -36 141 -44 186 -85 66 -59 144 -102 294 -159
67 -26 129 -55 138 -65 17 -19 39 -81 31 -89 -11 -11 -373 53 -565 99 -244 60
-562 179 -659 248 -16 12 -32 21 -35 21 -4 0 -5 -168 -4 -373 l3 -374 29 -37
c132 -173 612 -341 1216 -425 620 -86 1434 -84 2049 4 611 88 1078 256 1193
427 l28 41 0 369 0 370 -37 -23 c-21 -13 -47 -29 -58 -36 -42 -26 -239 -104
-374 -147 -150 -48 -383 -103 -576 -136 -162 -27 -159 -27 -151 12 10 49 31
64 160 113 159 61 229 99 301 166 57 54 67 59 230 113 187 63 330 132 416 200
91 72 89 59 89 480 l0 366 -49 -30 c-26 -17 -82 -45 -122 -64 -77 -35 -321
-126 -339 -126 -7 0 -10 47 -8 137 l3 136 141 57 c188 75 299 145 349 217 l25
38 0 373 0 373 -30 -21 c-51 -36 -230 -117 -353 -159 -136 -47 -304 -94 -317
-89 -9 3 -163 230 -158 232 2 1 48 12 103 25 139 32 376 111 480 160 159 74
275 176 275 240 0 39 -44 97 -113 148 -206 151 -670 287 -1222 357 -330 42
-903 63 -1285 46z m980 -26 c627 -49 1172 -178 1455 -343 102 -59 175 -138
175 -189 0 -28 -49 -87 -110 -132 -113 -85 -331 -173 -598 -241 l-152 -39 -37
43 c-78 90 -214 215 -304 280 -105 75 -305 181 -419 222 -428 153 -913 134
-1329 -53 -198 -89 -341 -189 -507 -357 l-141 -142 -119 28 c-443 103 -777
274 -777 399 0 63 87 141 248 220 350 172 958 291 1640 320 240 11 745 3 975
-16z m-324 -639 c345 -70 631 -242 846 -510 113 -142 191 -297 245 -491 l27
-99 4 -519 3 -519 -31 -63 c-50 -102 -101 -140 -290 -213 -143 -56 -168 -69
-219 -117 -88 -81 -112 -136 -160 -367 -23 -109 -41 -200 -41 -202 0 -3 -22
-5 -50 -5 l-50 0 0 60 c0 137 -101 219 -216 175 -69 -26 -98 -72 -102 -162
l-4 -73 -33 0 -33 0 -4 74 c-4 89 -22 119 -89 154 -53 28 -101 25 -155 -9 -47
-29 -73 -87 -74 -161 l0 -58 -35 0 -35 0 0 65 c0 74 -15 110 -59 148 -60 50
-152 43 -209 -16 -37 -38 -52 -81 -52 -150 l0 -48 -47 3 -48 3 -42 200 c-70
334 -113 386 -415 500 -123 46 -178 82 -222 142 -68 93 -68 94 -63 650 4 529
4 524 57 698 58 189 193 400 352 551 216 204 510 340 811 374 102 12 340 4
433 -15z m-2281 -423 c122 -48 264 -94 382 -123 48 -12 89 -23 91 -24 1 -1
-13 -39 -33 -84 -78 -184 -123 -373 -132 -563 -3 -65 -7 -118 -9 -118 -1 0
-49 16 -106 36 -216 74 -396 182 -440 264 -16 32 -18 64 -18 387 l0 353 83
-44 c45 -25 127 -62 182 -84z m4224 -605 c-19 -45 -111 -121 -209 -171 -79
-41 -261 -116 -282 -116 -5 0 -8 36 -8 79 0 164 -61 416 -144 597 -20 42 -36
78 -36 79 0 2 24 8 53 15 122 28 395 126 510 184 l122 61 3 -350 c2 -245 -1
-358 -9 -378z m-4430 -407 c71 -44 205 -100 369 -154 l142 -48 0 -252 c0 -220
3 -263 20 -331 19 -75 70 -181 111 -234 11 -13 17 -26 15 -28 -7 -7 -219 58
-336 104 -196 77 -322 158 -360 233 -19 37 -20 58 -20 390 0 192 2 350 5 350
3 0 27 -14 54 -30z m4430 -703 c-20 -49 -118 -125 -234 -182 -98 -49 -381
-152 -390 -143 -2 2 10 26 27 53 18 28 45 84 62 125 l31 75 3 295 3 295 132
45 c72 25 186 72 252 105 l120 60 3 -350 c2 -247 -1 -358 -9 -378z m-4349
-445 c228 -113 565 -209 945 -269 94 -14 172 -28 174 -29 1 -1 20 -84 41 -183
21 -98 44 -189 50 -201 23 -43 85 -102 134 -128 l51 -27 715 -3 c500 -2 730 0
767 8 66 14 131 57 172 115 25 35 38 71 58 163 14 64 33 151 42 192 l16 75 55
8 c100 14 373 68 475 93 168 41 430 134 551 194 l114 58 0 -355 c0 -388 1
-380 -62 -439 -164 -156 -601 -300 -1148 -378 -352 -51 -608 -67 -1045 -67
-441 0 -747 22 -1098 76 -561 87 -1030 262 -1122 419 l-25 43 0 352 c0 194 3
351 8 349 4 -2 63 -32 132 -66z"/>
<path d="M1791 2829 c-108 -19 -215 -86 -285 -180 -117 -155 -122 -378 -13
-538 100 -146 279 -226 452 -202 307 44 488 370 362 653 -52 115 -166 218
-279 252 -65 20 -172 27 -237 15z m171 -337 c32 -18 68 -80 68 -115 0 -64 -50
-131 -110 -147 -102 -27 -205 64 -185 166 8 44 58 101 99 113 38 12 92 5 128
-17z"/>
<path d="M3216 2830 c-77 -14 -185 -72 -245 -132 -30 -31 -67 -84 -89 -127
-34 -68 -37 -83 -40 -177 -6 -150 25 -237 124 -343 192 -208 535 -190 705 36
137 181 130 422 -17 592 -47 54 -141 116 -205 135 -65 20 -173 27 -233 16z
m144 -326 c94 -38 120 -159 49 -232 -58 -59 -145 -63 -204 -8 -96 91 -37 248
97 255 10 1 36 -6 58 -15z"/>
<path d="M2542 2093 c-13 -3 -40 -21 -60 -42 -32 -32 -47 -66 -111 -254 -78
-232 -81 -250 -41 -314 10 -18 38 -42 60 -53 39 -20 55 -21 215 -18 188 3 201
7 248 69 40 55 35 92 -44 321 -79 230 -102 270 -167 288 -38 10 -59 11 -100 3z"/>
</g>
</svg>
