<svg width="512" height="512" xmlns="http://www.w3.org/2000/svg">
 <g id="Layer_1">
  <title>Layer 1</title>
  <path id="svg_2" d="m483.48465,52.49524c-13.18448,-9.03455 -31.64642,-17.04412 -54.88416,-23.77903c-46.20938,-13.41387 -107.43243,-20.7859 -172.36969,-20.7859s-126.16046,7.40001 -172.37016,20.7859c-23.26362,6.73491 -41.72638,14.74449 -54.88335,23.77903c-16.42005,11.27979 -24.74916,24.22256 -24.74916,38.55148l0,332.57605c0,14.32861 8.32948,27.29922 24.74916,38.55106c13.18371,9.03467 31.64646,17.04495 54.88335,23.77948c46.2094,13.41385 107.43286,20.78625 172.37016,20.78625s126.16031,-7.39996 172.36969,-20.81384c23.26395,-6.73459 41.72672,-14.7449 54.88416,-23.77945c16.41934,-11.2518 24.74918,-24.22256 24.74918,-38.55106l0,-332.57606c0,-14.32861 -8.32983,-27.29894 -24.74918,-38.55118l0,0.02766l0,-0.00042l0,0.00002zm-392.51459,2.90998c43.98114,-12.74841 102.65791,-19.78807 165.26077,-19.78807s121.30652,7.03967 165.26071,19.78807c47.61566,13.82975 60.21567,29.35014 60.21567,35.64109s-12.57367,21.81134 -60.21567,35.6412c-43.98126,12.74873 -102.65759,19.78802 -165.26071,19.78802s-121.30582,-7.03929 -165.26077,-19.78802c-47.61538,-13.82986 -60.21528,-29.34982 -60.21528,-35.6412s12.5737,-21.81134 60.21528,-35.64109zm330.52148,403.8583c-43.98129,12.74918 -102.65762,19.78888 -165.26074,19.78888s-121.3058,-7.0397 -165.26076,-19.78888c-47.61538,-13.82941 -60.21528,-29.34924 -60.21528,-35.64075l0,-71.11591c13.05109,8.56387 30.87669,16.1579 53.10617,22.61484c46.2094,13.41385 107.43288,20.78622 172.36987,20.78622s126.16031,-7.39993 172.37057,-20.81378c22.22861,-6.45706 40.08136,-14.05109 53.1058,-22.61484l0,71.11591c0,6.29138 -12.57367,21.81137 -60.21497,35.64078l0,0.02753l-0.0007,0l0.00003,0zm0,-110.8584c-43.98129,12.74841 -102.65762,19.78812 -165.26074,19.78812s-121.3058,-7.03967 -165.26076,-19.78812c-47.61538,-13.83017 -60.21528,-29.35016 -60.21528,-35.64078l0,-71.11632c13.05109,8.56387 30.87669,16.15746 53.10617,22.61522c46.2094,13.41388 107.43288,20.78629 172.36987,20.78629s126.16031,-7.39996 172.37057,-20.78629c22.22861,-6.45776 40.08136,-14.05135 53.1058,-22.61522l0,71.11632c0,6.29062 -12.57367,21.81134 -60.21497,35.64078l-0.0007,0l0.00003,0zm0,-110.85886c-43.98129,12.74883 -102.65762,19.78854 -165.26074,19.78854s-121.3058,-7.03973 -165.26076,-19.78854c-47.61538,-13.82933 -60.21528,-29.34973 -60.21528,-35.6411l0,-71.11589c13.05109,8.56375 30.87669,16.15778 53.10617,22.61522c46.2094,13.41417 107.43288,20.78586 172.36987,20.78586s126.16031,-7.39964 172.37057,-20.78586c22.22861,-6.45744 40.08136,-14.05147 53.1058,-22.61522l0,71.11589c0,6.29137 -12.57367,21.81177 -60.21497,35.6411l-0.0007,0l0.00003,0z" fill="#fff" stroke="#000"/>
  <path id="svg_1" d="m170.45256,261.20416" opacity="NaN" fill="#fff" stroke="#000"/>
  <g id="svg_3" stroke="null" stroke-width="48">
   <title fill="#fff" stroke="#000">ionicons-v5-l</title>
   <path id="svg_4" d="m414.34784,233.07147l0,76.21381a51.72463,49.26955 0 0 1 -32.51361,45.74371l-19.13831,7.29034a25.86232,24.63478 0 0 0 -15.75146,18.06808l-8.08228,38.59964a12.93116,12.31739 0 0 1 -12.70477,9.90009l-133.96692,0a12.93116,12.31739 0 0 1 -12.6806,-9.90009l-8.10626,-38.59964a25.86232,24.63478 0 0 0 -15.75174,-18.04501l-19.13802,-7.29031a51.72463,49.26955 0 0 1 -32.51387,-45.74368l0,-77.4995c0,-81.54114 69.31903,-147.66239 154.89081,-147.80866s155.45703,67.63013 155.45703,149.07124l0,-0.00002z" fill="#fff" stroke-linecap="round" stroke-miterlimit="10" stroke-width="32px" stroke="#000"/>
   <circle id="svg_5" cx="188.05253" cy="274.91976" r="30.79347" fill="#fff" stroke-linecap="round" stroke-miterlimit="10" stroke-width="32px" stroke="#000"/>
   <circle id="svg_6" cx="330.29526" cy="274.91976" r="30.79347" fill="#fff" stroke-linecap="round" stroke-miterlimit="10" stroke-width="32px" stroke="#000"/>
   <polygon id="svg_7" points="259.17431640625,318.0306396484375 246.24273681640625,354.9827880859375 272.10516357421875,354.9827880859375 259.17431640625,318.0306396484375 " fill="#fff" stroke-linecap="round" stroke-linejoin="round" stroke-width="32px" stroke="#000"/>
   <line id="svg_8" x1="259.1739" y1="404.25234" x2="259.1739" y2="428.88711" fill="#fff" stroke-linecap="round" stroke-linejoin="round" stroke-width="32px" stroke="#000"/>
   <line id="svg_9" x1="220.38042" y1="404.25234" x2="220.38042" y2="428.88711" fill="#fff" stroke-linecap="round" stroke-linejoin="round" stroke-width="32px" stroke="#000"/>
   <line id="svg_10" x1="297.96737" y1="404.25234" x2="297.96737" y2="428.88711" fill="#fff" stroke-linecap="round" stroke-linejoin="round" stroke-width="32px" stroke="#000"/>
  </g>
 </g>

</svg>